%TF.GenerationSoftware,KiCad,Pcbnew,(6.0.4-0)*%
%TF.CreationDate,2022-04-07T00:05:44-04:00*%
%TF.ProjectId,adb-usb-converter,6164622d-7573-4622-9d63-6f6e76657274,rev?*%
%TF.SameCoordinates,Original*%
%TF.FileFunction,Legend,Bot*%
%TF.FilePolarity,Positive*%
%FSLAX46Y46*%
G04 Gerber Fmt 4.6, Leading zero omitted, Abs format (unit mm)*
G04 Created by KiCad (PCBNEW (6.0.4-0)) date 2022-04-07 00:05:44*
%MOMM*%
%LPD*%
G01*
G04 APERTURE LIST*
%ADD10C,0.150000*%
%ADD11C,2.000000*%
%ADD12C,4.000000*%
%ADD13C,1.600000*%
%ADD14R,1.600000X1.600000*%
%ADD15O,1.400000X1.400000*%
%ADD16C,1.400000*%
G04 APERTURE END LIST*
D10*
X123149380Y1443333D02*
X122673190Y1443333D01*
X123244619Y1157619D02*
X122911285Y2157619D01*
X122577952Y1157619D01*
X122244619Y1157619D02*
X122244619Y2157619D01*
X122006523Y2157619D01*
X121863666Y2110000D01*
X121768428Y2014761D01*
X121720809Y1919523D01*
X121673190Y1729047D01*
X121673190Y1586190D01*
X121720809Y1395714D01*
X121768428Y1300476D01*
X121863666Y1205238D01*
X122006523Y1157619D01*
X122244619Y1157619D01*
X120911285Y1681428D02*
X120768428Y1633809D01*
X120720809Y1586190D01*
X120673190Y1490952D01*
X120673190Y1348095D01*
X120720809Y1252857D01*
X120768428Y1205238D01*
X120863666Y1157619D01*
X121244619Y1157619D01*
X121244619Y2157619D01*
X120911285Y2157619D01*
X120816047Y2110000D01*
X120768428Y2062380D01*
X120720809Y1967142D01*
X120720809Y1871904D01*
X120768428Y1776666D01*
X120816047Y1729047D01*
X120911285Y1681428D01*
X121244619Y1681428D01*
X119625571Y1824285D02*
X119244619Y1824285D01*
X119482714Y2157619D02*
X119482714Y1300476D01*
X119435095Y1205238D01*
X119339857Y1157619D01*
X119244619Y1157619D01*
X118768428Y1157619D02*
X118863666Y1205238D01*
X118911285Y1252857D01*
X118958904Y1348095D01*
X118958904Y1633809D01*
X118911285Y1729047D01*
X118863666Y1776666D01*
X118768428Y1824285D01*
X118625571Y1824285D01*
X118530333Y1776666D01*
X118482714Y1729047D01*
X118435095Y1633809D01*
X118435095Y1348095D01*
X118482714Y1252857D01*
X118530333Y1205238D01*
X118625571Y1157619D01*
X118768428Y1157619D01*
X117244619Y2157619D02*
X117244619Y1348095D01*
X117197000Y1252857D01*
X117149380Y1205238D01*
X117054142Y1157619D01*
X116863666Y1157619D01*
X116768428Y1205238D01*
X116720809Y1252857D01*
X116673190Y1348095D01*
X116673190Y2157619D01*
X116244619Y1205238D02*
X116101761Y1157619D01*
X115863666Y1157619D01*
X115768428Y1205238D01*
X115720809Y1252857D01*
X115673190Y1348095D01*
X115673190Y1443333D01*
X115720809Y1538571D01*
X115768428Y1586190D01*
X115863666Y1633809D01*
X116054142Y1681428D01*
X116149380Y1729047D01*
X116197000Y1776666D01*
X116244619Y1871904D01*
X116244619Y1967142D01*
X116197000Y2062380D01*
X116149380Y2110000D01*
X116054142Y2157619D01*
X115816047Y2157619D01*
X115673190Y2110000D01*
X114911285Y1681428D02*
X114768428Y1633809D01*
X114720809Y1586190D01*
X114673190Y1490952D01*
X114673190Y1348095D01*
X114720809Y1252857D01*
X114768428Y1205238D01*
X114863666Y1157619D01*
X115244619Y1157619D01*
X115244619Y2157619D01*
X114911285Y2157619D01*
X114816047Y2110000D01*
X114768428Y2062380D01*
X114720809Y1967142D01*
X114720809Y1871904D01*
X114768428Y1776666D01*
X114816047Y1729047D01*
X114911285Y1681428D01*
X115244619Y1681428D01*
X113054142Y1157619D02*
X113054142Y1681428D01*
X113101761Y1776666D01*
X113197000Y1824285D01*
X113387476Y1824285D01*
X113482714Y1776666D01*
X113054142Y1205238D02*
X113149380Y1157619D01*
X113387476Y1157619D01*
X113482714Y1205238D01*
X113530333Y1300476D01*
X113530333Y1395714D01*
X113482714Y1490952D01*
X113387476Y1538571D01*
X113149380Y1538571D01*
X113054142Y1586190D01*
X112149380Y1157619D02*
X112149380Y2157619D01*
X112149380Y1205238D02*
X112244619Y1157619D01*
X112435095Y1157619D01*
X112530333Y1205238D01*
X112577952Y1252857D01*
X112625571Y1348095D01*
X112625571Y1633809D01*
X112577952Y1729047D01*
X112530333Y1776666D01*
X112435095Y1824285D01*
X112244619Y1824285D01*
X112149380Y1776666D01*
X111244619Y1157619D02*
X111244619Y1681428D01*
X111292238Y1776666D01*
X111387476Y1824285D01*
X111577952Y1824285D01*
X111673190Y1776666D01*
X111244619Y1205238D02*
X111339857Y1157619D01*
X111577952Y1157619D01*
X111673190Y1205238D01*
X111720809Y1300476D01*
X111720809Y1395714D01*
X111673190Y1490952D01*
X111577952Y1538571D01*
X111339857Y1538571D01*
X111244619Y1586190D01*
X110768428Y1824285D02*
X110768428Y824285D01*
X110768428Y1776666D02*
X110673190Y1824285D01*
X110482714Y1824285D01*
X110387476Y1776666D01*
X110339857Y1729047D01*
X110292238Y1633809D01*
X110292238Y1348095D01*
X110339857Y1252857D01*
X110387476Y1205238D01*
X110482714Y1157619D01*
X110673190Y1157619D01*
X110768428Y1205238D01*
X110006523Y1824285D02*
X109625571Y1824285D01*
X109863666Y2157619D02*
X109863666Y1300476D01*
X109816047Y1205238D01*
X109720809Y1157619D01*
X109625571Y1157619D01*
X108911285Y1205238D02*
X109006523Y1157619D01*
X109197000Y1157619D01*
X109292238Y1205238D01*
X109339857Y1300476D01*
X109339857Y1681428D01*
X109292238Y1776666D01*
X109197000Y1824285D01*
X109006523Y1824285D01*
X108911285Y1776666D01*
X108863666Y1681428D01*
X108863666Y1586190D01*
X109339857Y1490952D01*
X108435095Y1157619D02*
X108435095Y1824285D01*
X108435095Y1633809D02*
X108387476Y1729047D01*
X108339857Y1776666D01*
X108244619Y1824285D01*
X108149380Y1824285D01*
X122292238Y-452380D02*
X122292238Y547619D01*
X122292238Y166666D02*
X122197000Y214285D01*
X122006523Y214285D01*
X121911285Y166666D01*
X121863666Y119047D01*
X121816047Y23809D01*
X121816047Y-261904D01*
X121863666Y-357142D01*
X121911285Y-404761D01*
X122006523Y-452380D01*
X122197000Y-452380D01*
X122292238Y-404761D01*
X121482714Y214285D02*
X121244619Y-452380D01*
X121006523Y214285D02*
X121244619Y-452380D01*
X121339857Y-690476D01*
X121387476Y-738095D01*
X121482714Y-785714D01*
X119292238Y-452380D02*
X119625571Y23809D01*
X119863666Y-452380D02*
X119863666Y547619D01*
X119482714Y547619D01*
X119387476Y500000D01*
X119339857Y452380D01*
X119292238Y357142D01*
X119292238Y214285D01*
X119339857Y119047D01*
X119387476Y71428D01*
X119482714Y23809D01*
X119863666Y23809D01*
X118720809Y-452380D02*
X118816047Y-404761D01*
X118863666Y-357142D01*
X118911285Y-261904D01*
X118911285Y23809D01*
X118863666Y119047D01*
X118816047Y166666D01*
X118720809Y214285D01*
X118577952Y214285D01*
X118482714Y166666D01*
X118435095Y119047D01*
X118387476Y23809D01*
X118387476Y-261904D01*
X118435095Y-357142D01*
X118482714Y-404761D01*
X118577952Y-452380D01*
X118720809Y-452380D01*
X117958904Y214285D02*
X117958904Y-452380D01*
X117958904Y119047D02*
X117911285Y166666D01*
X117816047Y214285D01*
X117673190Y214285D01*
X117577952Y166666D01*
X117530333Y71428D01*
X117530333Y-452380D01*
X116625571Y-452380D02*
X116625571Y71428D01*
X116673190Y166666D01*
X116768428Y214285D01*
X116958904Y214285D01*
X117054142Y166666D01*
X116625571Y-404761D02*
X116720809Y-452380D01*
X116958904Y-452380D01*
X117054142Y-404761D01*
X117101761Y-309523D01*
X117101761Y-214285D01*
X117054142Y-119047D01*
X116958904Y-71428D01*
X116720809Y-71428D01*
X116625571Y-23809D01*
X116149380Y214285D02*
X116149380Y-452380D01*
X116149380Y119047D02*
X116101761Y166666D01*
X116006523Y214285D01*
X115863666Y214285D01*
X115768428Y166666D01*
X115720809Y71428D01*
X115720809Y-452380D01*
X113958904Y500000D02*
X114054142Y547619D01*
X114197000Y547619D01*
X114339857Y500000D01*
X114435095Y404761D01*
X114482714Y309523D01*
X114530333Y119047D01*
X114530333Y-23809D01*
X114482714Y-214285D01*
X114435095Y-309523D01*
X114339857Y-404761D01*
X114197000Y-452380D01*
X114101761Y-452380D01*
X113958904Y-404761D01*
X113911285Y-357142D01*
X113911285Y-23809D01*
X114101761Y-23809D01*
X113054142Y-452380D02*
X113054142Y71428D01*
X113101761Y166666D01*
X113197000Y214285D01*
X113387476Y214285D01*
X113482714Y166666D01*
X113054142Y-404761D02*
X113149380Y-452380D01*
X113387476Y-452380D01*
X113482714Y-404761D01*
X113530333Y-309523D01*
X113530333Y-214285D01*
X113482714Y-119047D01*
X113387476Y-71428D01*
X113149380Y-71428D01*
X113054142Y-23809D01*
X112577952Y-452380D02*
X112577952Y214285D01*
X112577952Y547619D02*
X112625571Y500000D01*
X112577952Y452380D01*
X112530333Y500000D01*
X112577952Y547619D01*
X112577952Y452380D01*
X111958904Y-452380D02*
X112054142Y-404761D01*
X112101761Y-309523D01*
X112101761Y547619D01*
X111435095Y-452380D02*
X111530333Y-404761D01*
X111577952Y-309523D01*
X111577952Y547619D01*
X110625571Y-452380D02*
X110625571Y71428D01*
X110673190Y166666D01*
X110768428Y214285D01*
X110958904Y214285D01*
X111054142Y166666D01*
X110625571Y-404761D02*
X110720809Y-452380D01*
X110958904Y-452380D01*
X111054142Y-404761D01*
X111101761Y-309523D01*
X111101761Y-214285D01*
X111054142Y-119047D01*
X110958904Y-71428D01*
X110720809Y-71428D01*
X110625571Y-23809D01*
X110149380Y-452380D02*
X110149380Y214285D01*
X110149380Y23809D02*
X110101761Y119047D01*
X110054142Y166666D01*
X109958904Y214285D01*
X109863666Y214285D01*
X109101761Y-452380D02*
X109101761Y547619D01*
X109101761Y-404761D02*
X109197000Y-452380D01*
X109387476Y-452380D01*
X109482714Y-404761D01*
X109530333Y-357142D01*
X109577952Y-261904D01*
X109577952Y23809D01*
X109530333Y119047D01*
X109482714Y166666D01*
X109387476Y214285D01*
X109197000Y214285D01*
X109101761Y166666D01*
X117625571Y-2062380D02*
X117625571Y-1395714D01*
X117625571Y-1586190D02*
X117577952Y-1490952D01*
X117530333Y-1443333D01*
X117435095Y-1395714D01*
X117339857Y-1395714D01*
X116625571Y-2014761D02*
X116720809Y-2062380D01*
X116911285Y-2062380D01*
X117006523Y-2014761D01*
X117054142Y-1919523D01*
X117054142Y-1538571D01*
X117006523Y-1443333D01*
X116911285Y-1395714D01*
X116720809Y-1395714D01*
X116625571Y-1443333D01*
X116577952Y-1538571D01*
X116577952Y-1633809D01*
X117054142Y-1729047D01*
X116244619Y-1395714D02*
X116006523Y-2062380D01*
X115768428Y-1395714D01*
X114673190Y-1776666D02*
X114197000Y-1776666D01*
X114768428Y-2062380D02*
X114435095Y-1062380D01*
X114101761Y-2062380D01*
X113768428Y-1967142D02*
X113720809Y-2014761D01*
X113768428Y-2062380D01*
X113816047Y-2014761D01*
X113768428Y-1967142D01*
X113768428Y-2062380D01*
%LPC*%
D11*
%TO.C,J1*%
X139450000Y-3400000D03*
X139450000Y3400000D03*
X141950000Y-3400000D03*
X141950000Y3400000D03*
D12*
X145750000Y0D03*
X144950000Y-6750000D03*
X144950000Y6750000D03*
%TD*%
D13*
%TO.C,U1*%
X106965001Y7620000D03*
X109505001Y7620000D03*
X112045001Y7620000D03*
X114585001Y7620000D03*
X117125001Y7620000D03*
X119665001Y7620000D03*
X122205001Y7620000D03*
X124745001Y7620000D03*
X127285001Y7620000D03*
X129825001Y7620000D03*
X132365001Y7620000D03*
X134905001Y7620000D03*
X134905001Y-7620000D03*
X132365001Y-7620000D03*
X129825001Y-7620000D03*
X127285001Y-7620000D03*
X124745001Y-7620000D03*
X122205001Y-7620000D03*
X119665001Y-7620000D03*
X117125001Y-7620000D03*
X114585001Y-7620000D03*
X112045001Y-7620000D03*
X109505001Y-7620000D03*
D14*
X106965001Y-7620000D03*
%TD*%
D15*
%TO.C,R1*%
X133858000Y0D03*
D16*
X126238000Y0D03*
%TD*%
M02*
