%TF.GenerationSoftware,KiCad,Pcbnew,(6.0.4-0)*%
%TF.CreationDate,2022-04-07T00:05:43-04:00*%
%TF.ProjectId,adb-usb-converter,6164622d-7573-4622-9d63-6f6e76657274,rev?*%
%TF.SameCoordinates,Original*%
%TF.FileFunction,Legend,Top*%
%TF.FilePolarity,Positive*%
%FSLAX46Y46*%
G04 Gerber Fmt 4.6, Leading zero omitted, Abs format (unit mm)*
G04 Created by KiCad (PCBNEW (6.0.4-0)) date 2022-04-07 00:05:43*
%MOMM*%
%LPD*%
G01*
G04 APERTURE LIST*
%ADD10C,0.150000*%
%ADD11C,0.120000*%
%ADD12C,2.000000*%
%ADD13C,4.000000*%
%ADD14C,1.600000*%
%ADD15R,1.600000X1.600000*%
%ADD16O,1.400000X1.400000*%
%ADD17C,1.400000*%
G04 APERTURE END LIST*
D10*
X114760952Y-1992380D02*
X114760952Y-2706666D01*
X114713333Y-2849523D01*
X114618095Y-2944761D01*
X114475238Y-2992380D01*
X114380000Y-2992380D01*
X115713333Y-2992380D02*
X115237142Y-2992380D01*
X115237142Y-1992380D01*
X116618095Y-2897142D02*
X116570476Y-2944761D01*
X116427619Y-2992380D01*
X116332380Y-2992380D01*
X116189523Y-2944761D01*
X116094285Y-2849523D01*
X116046666Y-2754285D01*
X115999047Y-2563809D01*
X115999047Y-2420952D01*
X116046666Y-2230476D01*
X116094285Y-2135238D01*
X116189523Y-2040000D01*
X116332380Y-1992380D01*
X116427619Y-1992380D01*
X116570476Y-2040000D01*
X116618095Y-2087619D01*
X117332380Y-1992380D02*
X117332380Y-2706666D01*
X117284761Y-2849523D01*
X117189523Y-2944761D01*
X117046666Y-2992380D01*
X116951428Y-2992380D01*
X118284761Y-2992380D02*
X117808571Y-2992380D01*
X117808571Y-1992380D01*
X119189523Y-2897142D02*
X119141904Y-2944761D01*
X118999047Y-2992380D01*
X118903809Y-2992380D01*
X118760952Y-2944761D01*
X118665714Y-2849523D01*
X118618095Y-2754285D01*
X118570476Y-2563809D01*
X118570476Y-2420952D01*
X118618095Y-2230476D01*
X118665714Y-2135238D01*
X118760952Y-2040000D01*
X118903809Y-1992380D01*
X118999047Y-1992380D01*
X119141904Y-2040000D01*
X119189523Y-2087619D01*
X119903809Y-1992380D02*
X119903809Y-2706666D01*
X119856190Y-2849523D01*
X119760952Y-2944761D01*
X119618095Y-2992380D01*
X119522857Y-2992380D01*
X120856190Y-2992380D02*
X120380000Y-2992380D01*
X120380000Y-1992380D01*
X121760952Y-2897142D02*
X121713333Y-2944761D01*
X121570476Y-2992380D01*
X121475238Y-2992380D01*
X121332380Y-2944761D01*
X121237142Y-2849523D01*
X121189523Y-2754285D01*
X121141904Y-2563809D01*
X121141904Y-2420952D01*
X121189523Y-2230476D01*
X121237142Y-2135238D01*
X121332380Y-2040000D01*
X121475238Y-1992380D01*
X121570476Y-1992380D01*
X121713333Y-2040000D01*
X121760952Y-2087619D01*
X122475238Y-1992380D02*
X122475238Y-2706666D01*
X122427619Y-2849523D01*
X122332380Y-2944761D01*
X122189523Y-2992380D01*
X122094285Y-2992380D01*
X123427619Y-2992380D02*
X122951428Y-2992380D01*
X122951428Y-1992380D01*
X124332380Y-2897142D02*
X124284761Y-2944761D01*
X124141904Y-2992380D01*
X124046666Y-2992380D01*
X123903809Y-2944761D01*
X123808571Y-2849523D01*
X123760952Y-2754285D01*
X123713333Y-2563809D01*
X123713333Y-2420952D01*
X123760952Y-2230476D01*
X123808571Y-2135238D01*
X123903809Y-2040000D01*
X124046666Y-1992380D01*
X124141904Y-1992380D01*
X124284761Y-2040000D01*
X124332380Y-2087619D01*
%TO.C,J1*%
X135952380Y-333333D02*
X136666666Y-333333D01*
X136809523Y-380952D01*
X136904761Y-476190D01*
X136952380Y-619047D01*
X136952380Y-714285D01*
X136952380Y666666D02*
X136952380Y95238D01*
X136952380Y380952D02*
X135952380Y380952D01*
X136095238Y285714D01*
X136190476Y190476D01*
X136238095Y95238D01*
%TO.C,R1*%
X129881333Y1467619D02*
X129548000Y1943809D01*
X129309904Y1467619D02*
X129309904Y2467619D01*
X129690857Y2467619D01*
X129786095Y2420000D01*
X129833714Y2372380D01*
X129881333Y2277142D01*
X129881333Y2134285D01*
X129833714Y2039047D01*
X129786095Y1991428D01*
X129690857Y1943809D01*
X129309904Y1943809D01*
X130833714Y1467619D02*
X130262285Y1467619D01*
X130548000Y1467619D02*
X130548000Y2467619D01*
X130452761Y2324761D01*
X130357523Y2229523D01*
X130262285Y2181904D01*
D11*
%TO.C,J1*%
X150450000Y7000000D02*
X150450000Y-7000000D01*
X150450000Y-7000000D02*
X137550000Y-7000000D01*
X137550000Y-7000000D02*
X137550000Y7000000D01*
X137550000Y7000000D02*
X150450000Y7000000D01*
%TO.C,R1*%
X128128000Y920000D02*
X128128000Y-920000D01*
X128128000Y-920000D02*
X131968000Y-920000D01*
X131968000Y-920000D02*
X131968000Y920000D01*
X131968000Y920000D02*
X128128000Y920000D01*
X127178000Y0D02*
X128128000Y0D01*
X132918000Y0D02*
X131968000Y0D01*
%TD*%
%LPC*%
D12*
%TO.C,J1*%
X139450000Y-3400000D03*
X139450000Y3400000D03*
X141950000Y-3400000D03*
X141950000Y3400000D03*
D13*
X145750000Y0D03*
X144950000Y-6750000D03*
X144950000Y6750000D03*
%TD*%
D14*
%TO.C,U1*%
X106965001Y7620000D03*
X109505001Y7620000D03*
X112045001Y7620000D03*
X114585001Y7620000D03*
X117125001Y7620000D03*
X119665001Y7620000D03*
X122205001Y7620000D03*
X124745001Y7620000D03*
X127285001Y7620000D03*
X129825001Y7620000D03*
X132365001Y7620000D03*
X134905001Y7620000D03*
X134905001Y-7620000D03*
X132365001Y-7620000D03*
X129825001Y-7620000D03*
X127285001Y-7620000D03*
X124745001Y-7620000D03*
X122205001Y-7620000D03*
X119665001Y-7620000D03*
X117125001Y-7620000D03*
X114585001Y-7620000D03*
X112045001Y-7620000D03*
X109505001Y-7620000D03*
D15*
X106965001Y-7620000D03*
%TD*%
D16*
%TO.C,R1*%
X133858000Y0D03*
D17*
X126238000Y0D03*
%TD*%
M02*
