%TF.GenerationSoftware,KiCad,Pcbnew,(6.0.4-0)*%
%TF.CreationDate,2022-04-07T00:05:43-04:00*%
%TF.ProjectId,adb-usb-converter,6164622d-7573-4622-9d63-6f6e76657274,rev?*%
%TF.SameCoordinates,Original*%
%TF.FileFunction,Copper,L2,Bot*%
%TF.FilePolarity,Positive*%
%FSLAX46Y46*%
G04 Gerber Fmt 4.6, Leading zero omitted, Abs format (unit mm)*
G04 Created by KiCad (PCBNEW (6.0.4-0)) date 2022-04-07 00:05:43*
%MOMM*%
%LPD*%
G01*
G04 APERTURE LIST*
%TA.AperFunction,ComponentPad*%
%ADD10C,2.000000*%
%TD*%
%TA.AperFunction,ComponentPad*%
%ADD11C,4.000000*%
%TD*%
%TA.AperFunction,ComponentPad*%
%ADD12C,1.600000*%
%TD*%
%TA.AperFunction,ComponentPad*%
%ADD13R,1.600000X1.600000*%
%TD*%
%TA.AperFunction,ComponentPad*%
%ADD14O,1.400000X1.400000*%
%TD*%
%TA.AperFunction,ComponentPad*%
%ADD15C,1.400000*%
%TD*%
G04 APERTURE END LIST*
D10*
%TO.P,J1,5*%
%TO.N,GND*%
X139450000Y-3400000D03*
%TO.P,J1,3*%
%TO.N,VCC*%
X139450000Y3400000D03*
%TO.P,J1,4*%
%TO.N,Net-(J1-Pad4)*%
X141950000Y-3400000D03*
%TO.P,J1,2*%
%TO.N,/ADB*%
X141950000Y3400000D03*
D11*
%TO.P,J1,1*%
%TO.N,GND*%
X145750000Y0D03*
X144950000Y-6750000D03*
X144950000Y6750000D03*
%TD*%
D12*
%TO.P,U1,24*%
%TO.N,Net-(U1-Pad24)*%
X106965001Y7620000D03*
%TO.P,U1,23*%
%TO.N,GND*%
X109505001Y7620000D03*
%TO.P,U1,22*%
%TO.N,Net-(U1-Pad22)*%
X112045001Y7620000D03*
%TO.P,U1,21*%
%TO.N,VCC*%
X114585001Y7620000D03*
%TO.P,U1,20*%
%TO.N,Net-(U1-Pad20)*%
X117125001Y7620000D03*
%TO.P,U1,19*%
%TO.N,Net-(U1-Pad19)*%
X119665001Y7620000D03*
%TO.P,U1,18*%
%TO.N,Net-(U1-Pad18)*%
X122205001Y7620000D03*
%TO.P,U1,17*%
%TO.N,Net-(U1-Pad17)*%
X124745001Y7620000D03*
%TO.P,U1,16*%
%TO.N,Net-(U1-Pad16)*%
X127285001Y7620000D03*
%TO.P,U1,15*%
%TO.N,Net-(U1-Pad15)*%
X129825001Y7620000D03*
%TO.P,U1,14*%
%TO.N,Net-(U1-Pad14)*%
X132365001Y7620000D03*
%TO.P,U1,13*%
%TO.N,Net-(U1-Pad13)*%
X134905001Y7620000D03*
%TO.P,U1,12*%
%TO.N,Net-(U1-Pad12)*%
X134905001Y-7620000D03*
%TO.P,U1,11*%
%TO.N,Net-(U1-Pad11)*%
X132365001Y-7620000D03*
%TO.P,U1,10*%
%TO.N,Net-(U1-Pad10)*%
X129825001Y-7620000D03*
%TO.P,U1,9*%
%TO.N,Net-(U1-Pad9)*%
X127285001Y-7620000D03*
%TO.P,U1,8*%
%TO.N,Net-(U1-Pad8)*%
X124745001Y-7620000D03*
%TO.P,U1,7*%
%TO.N,Net-(U1-Pad7)*%
X122205001Y-7620000D03*
%TO.P,U1,6*%
%TO.N,/ADB*%
X119665001Y-7620000D03*
%TO.P,U1,5*%
%TO.N,Net-(U1-Pad5)*%
X117125001Y-7620000D03*
%TO.P,U1,4*%
%TO.N,GND*%
X114585001Y-7620000D03*
%TO.P,U1,3*%
X112045001Y-7620000D03*
%TO.P,U1,2*%
%TO.N,Net-(U1-Pad2)*%
X109505001Y-7620000D03*
D13*
%TO.P,U1,1*%
%TO.N,Net-(U1-Pad1)*%
X106965001Y-7620000D03*
%TD*%
D14*
%TO.P,R1,2*%
%TO.N,/ADB*%
X133858000Y0D03*
D15*
%TO.P,R1,1*%
%TO.N,VCC*%
X126238000Y0D03*
%TD*%
%TA.AperFunction,Conductor*%
%TO.N,GND*%
G36*
X142853899Y8361498D02*
G01*
X142900392Y8307842D01*
X142910496Y8237568D01*
X142892163Y8187986D01*
X142750001Y7963974D01*
X142746189Y7957041D01*
X142615199Y7678672D01*
X142612284Y7671309D01*
X142517217Y7378723D01*
X142515246Y7371046D01*
X142457600Y7068855D01*
X142456607Y7060994D01*
X142437290Y6753958D01*
X142437290Y6746042D01*
X142456607Y6439006D01*
X142457600Y6431145D01*
X142515246Y6128954D01*
X142517217Y6121277D01*
X142612284Y5828691D01*
X142615199Y5821328D01*
X142746189Y5542959D01*
X142750001Y5536026D01*
X142914851Y5276264D01*
X142919495Y5269871D01*
X142994497Y5179210D01*
X143007014Y5170755D01*
X143017752Y5176962D01*
X144860905Y7020115D01*
X144923217Y7054141D01*
X144994032Y7049076D01*
X145039095Y7020115D01*
X146881145Y5178065D01*
X146894407Y5170823D01*
X146904512Y5178012D01*
X146980505Y5269871D01*
X146985149Y5276264D01*
X147149999Y5536026D01*
X147153811Y5542959D01*
X147284801Y5821328D01*
X147287716Y5828691D01*
X147382783Y6121277D01*
X147384754Y6128954D01*
X147442400Y6431145D01*
X147443393Y6439006D01*
X147462710Y6746042D01*
X147462710Y6753958D01*
X147443393Y7060994D01*
X147442400Y7068855D01*
X147384754Y7371046D01*
X147382783Y7378723D01*
X147287716Y7671309D01*
X147284801Y7678672D01*
X147153811Y7957041D01*
X147149999Y7963974D01*
X147007837Y8187986D01*
X146988224Y8256220D01*
X147008615Y8324225D01*
X147062535Y8370411D01*
X147114222Y8381500D01*
X149733500Y8381500D01*
X149801621Y8361498D01*
X149848114Y8307842D01*
X149859500Y8255500D01*
X149859500Y-8255500D01*
X149839498Y-8323621D01*
X149785842Y-8370114D01*
X149733500Y-8381500D01*
X147114222Y-8381500D01*
X147046101Y-8361498D01*
X146999608Y-8307842D01*
X146989504Y-8237568D01*
X147007837Y-8187986D01*
X147149999Y-7963974D01*
X147153811Y-7957041D01*
X147284801Y-7678672D01*
X147287716Y-7671309D01*
X147382783Y-7378723D01*
X147384754Y-7371046D01*
X147442400Y-7068855D01*
X147443393Y-7060994D01*
X147462710Y-6753958D01*
X147462710Y-6746042D01*
X147443393Y-6439006D01*
X147442400Y-6431145D01*
X147384754Y-6128954D01*
X147382783Y-6121277D01*
X147287716Y-5828691D01*
X147284801Y-5821328D01*
X147153811Y-5542959D01*
X147149999Y-5536026D01*
X146985149Y-5276264D01*
X146980505Y-5269871D01*
X146905503Y-5179210D01*
X146892986Y-5170755D01*
X146882248Y-5176962D01*
X145039095Y-7020115D01*
X144976783Y-7054141D01*
X144905968Y-7049076D01*
X144860905Y-7020115D01*
X143018855Y-5178065D01*
X143005593Y-5170823D01*
X142995488Y-5178012D01*
X142919495Y-5269871D01*
X142914851Y-5276264D01*
X142750001Y-5536026D01*
X142746189Y-5542959D01*
X142615199Y-5821328D01*
X142612284Y-5828691D01*
X142517217Y-6121277D01*
X142515246Y-6128954D01*
X142457600Y-6431145D01*
X142456607Y-6439006D01*
X142437290Y-6746042D01*
X142437290Y-6753958D01*
X142456607Y-7060994D01*
X142457600Y-7068855D01*
X142515246Y-7371046D01*
X142517217Y-7378723D01*
X142612284Y-7671309D01*
X142615199Y-7678672D01*
X142746189Y-7957041D01*
X142750001Y-7963974D01*
X142892163Y-8187986D01*
X142911776Y-8256220D01*
X142891385Y-8324225D01*
X142837465Y-8370411D01*
X142785778Y-8381500D01*
X136191458Y-8381500D01*
X136123337Y-8361498D01*
X136076844Y-8307842D01*
X136066740Y-8237568D01*
X136077263Y-8202250D01*
X136083915Y-8187986D01*
X136139285Y-8069243D01*
X136179523Y-7919076D01*
X136197120Y-7853402D01*
X136197120Y-7853400D01*
X136198544Y-7848087D01*
X136218499Y-7620000D01*
X136198544Y-7391913D01*
X136161982Y-7255461D01*
X136140708Y-7176067D01*
X136140707Y-7176065D01*
X136139285Y-7170757D01*
X136085149Y-7054661D01*
X136044850Y-6968238D01*
X136044847Y-6968233D01*
X136042524Y-6963251D01*
X135911199Y-6775700D01*
X135749301Y-6613802D01*
X135744793Y-6610645D01*
X135744790Y-6610643D01*
X135618921Y-6522509D01*
X135561750Y-6482477D01*
X135556768Y-6480154D01*
X135556763Y-6480151D01*
X135359226Y-6388039D01*
X135359225Y-6388039D01*
X135354244Y-6385716D01*
X135348936Y-6384294D01*
X135348934Y-6384293D01*
X135138403Y-6327881D01*
X135138401Y-6327881D01*
X135133088Y-6326457D01*
X134905001Y-6306502D01*
X134676914Y-6326457D01*
X134671601Y-6327881D01*
X134671599Y-6327881D01*
X134461068Y-6384293D01*
X134461066Y-6384294D01*
X134455758Y-6385716D01*
X134450777Y-6388039D01*
X134450776Y-6388039D01*
X134253239Y-6480151D01*
X134253234Y-6480154D01*
X134248252Y-6482477D01*
X134191081Y-6522509D01*
X134065212Y-6610643D01*
X134065209Y-6610645D01*
X134060701Y-6613802D01*
X133898803Y-6775700D01*
X133767478Y-6963251D01*
X133765155Y-6968233D01*
X133765152Y-6968238D01*
X133749196Y-7002457D01*
X133702279Y-7055742D01*
X133634002Y-7075203D01*
X133566042Y-7054661D01*
X133520806Y-7002457D01*
X133504850Y-6968238D01*
X133504847Y-6968233D01*
X133502524Y-6963251D01*
X133371199Y-6775700D01*
X133209301Y-6613802D01*
X133204793Y-6610645D01*
X133204790Y-6610643D01*
X133078921Y-6522509D01*
X133021750Y-6482477D01*
X133016768Y-6480154D01*
X133016763Y-6480151D01*
X132819226Y-6388039D01*
X132819225Y-6388039D01*
X132814244Y-6385716D01*
X132808936Y-6384294D01*
X132808934Y-6384293D01*
X132598403Y-6327881D01*
X132598401Y-6327881D01*
X132593088Y-6326457D01*
X132365001Y-6306502D01*
X132136914Y-6326457D01*
X132131601Y-6327881D01*
X132131599Y-6327881D01*
X131921068Y-6384293D01*
X131921066Y-6384294D01*
X131915758Y-6385716D01*
X131910777Y-6388039D01*
X131910776Y-6388039D01*
X131713239Y-6480151D01*
X131713234Y-6480154D01*
X131708252Y-6482477D01*
X131651081Y-6522509D01*
X131525212Y-6610643D01*
X131525209Y-6610645D01*
X131520701Y-6613802D01*
X131358803Y-6775700D01*
X131227478Y-6963251D01*
X131225155Y-6968233D01*
X131225152Y-6968238D01*
X131209196Y-7002457D01*
X131162279Y-7055742D01*
X131094002Y-7075203D01*
X131026042Y-7054661D01*
X130980806Y-7002457D01*
X130964850Y-6968238D01*
X130964847Y-6968233D01*
X130962524Y-6963251D01*
X130831199Y-6775700D01*
X130669301Y-6613802D01*
X130664793Y-6610645D01*
X130664790Y-6610643D01*
X130538921Y-6522509D01*
X130481750Y-6482477D01*
X130476768Y-6480154D01*
X130476763Y-6480151D01*
X130279226Y-6388039D01*
X130279225Y-6388039D01*
X130274244Y-6385716D01*
X130268936Y-6384294D01*
X130268934Y-6384293D01*
X130058403Y-6327881D01*
X130058401Y-6327881D01*
X130053088Y-6326457D01*
X129825001Y-6306502D01*
X129596914Y-6326457D01*
X129591601Y-6327881D01*
X129591599Y-6327881D01*
X129381068Y-6384293D01*
X129381066Y-6384294D01*
X129375758Y-6385716D01*
X129370777Y-6388039D01*
X129370776Y-6388039D01*
X129173239Y-6480151D01*
X129173234Y-6480154D01*
X129168252Y-6482477D01*
X129111081Y-6522509D01*
X128985212Y-6610643D01*
X128985209Y-6610645D01*
X128980701Y-6613802D01*
X128818803Y-6775700D01*
X128687478Y-6963251D01*
X128685155Y-6968233D01*
X128685152Y-6968238D01*
X128669196Y-7002457D01*
X128622279Y-7055742D01*
X128554002Y-7075203D01*
X128486042Y-7054661D01*
X128440806Y-7002457D01*
X128424850Y-6968238D01*
X128424847Y-6968233D01*
X128422524Y-6963251D01*
X128291199Y-6775700D01*
X128129301Y-6613802D01*
X128124793Y-6610645D01*
X128124790Y-6610643D01*
X127998921Y-6522509D01*
X127941750Y-6482477D01*
X127936768Y-6480154D01*
X127936763Y-6480151D01*
X127739226Y-6388039D01*
X127739225Y-6388039D01*
X127734244Y-6385716D01*
X127728936Y-6384294D01*
X127728934Y-6384293D01*
X127518403Y-6327881D01*
X127518401Y-6327881D01*
X127513088Y-6326457D01*
X127285001Y-6306502D01*
X127056914Y-6326457D01*
X127051601Y-6327881D01*
X127051599Y-6327881D01*
X126841068Y-6384293D01*
X126841066Y-6384294D01*
X126835758Y-6385716D01*
X126830777Y-6388039D01*
X126830776Y-6388039D01*
X126633239Y-6480151D01*
X126633234Y-6480154D01*
X126628252Y-6482477D01*
X126571081Y-6522509D01*
X126445212Y-6610643D01*
X126445209Y-6610645D01*
X126440701Y-6613802D01*
X126278803Y-6775700D01*
X126147478Y-6963251D01*
X126145155Y-6968233D01*
X126145152Y-6968238D01*
X126129196Y-7002457D01*
X126082279Y-7055742D01*
X126014002Y-7075203D01*
X125946042Y-7054661D01*
X125900806Y-7002457D01*
X125884850Y-6968238D01*
X125884847Y-6968233D01*
X125882524Y-6963251D01*
X125751199Y-6775700D01*
X125589301Y-6613802D01*
X125584793Y-6610645D01*
X125584790Y-6610643D01*
X125458921Y-6522509D01*
X125401750Y-6482477D01*
X125396768Y-6480154D01*
X125396763Y-6480151D01*
X125199226Y-6388039D01*
X125199225Y-6388039D01*
X125194244Y-6385716D01*
X125188936Y-6384294D01*
X125188934Y-6384293D01*
X124978403Y-6327881D01*
X124978401Y-6327881D01*
X124973088Y-6326457D01*
X124745001Y-6306502D01*
X124516914Y-6326457D01*
X124511601Y-6327881D01*
X124511599Y-6327881D01*
X124301068Y-6384293D01*
X124301066Y-6384294D01*
X124295758Y-6385716D01*
X124290777Y-6388039D01*
X124290776Y-6388039D01*
X124093239Y-6480151D01*
X124093234Y-6480154D01*
X124088252Y-6482477D01*
X124031081Y-6522509D01*
X123905212Y-6610643D01*
X123905209Y-6610645D01*
X123900701Y-6613802D01*
X123738803Y-6775700D01*
X123607478Y-6963251D01*
X123605155Y-6968233D01*
X123605152Y-6968238D01*
X123589196Y-7002457D01*
X123542279Y-7055742D01*
X123474002Y-7075203D01*
X123406042Y-7054661D01*
X123360806Y-7002457D01*
X123344850Y-6968238D01*
X123344847Y-6968233D01*
X123342524Y-6963251D01*
X123211199Y-6775700D01*
X123049301Y-6613802D01*
X123044793Y-6610645D01*
X123044790Y-6610643D01*
X122918921Y-6522509D01*
X122861750Y-6482477D01*
X122856768Y-6480154D01*
X122856763Y-6480151D01*
X122659226Y-6388039D01*
X122659225Y-6388039D01*
X122654244Y-6385716D01*
X122648936Y-6384294D01*
X122648934Y-6384293D01*
X122438403Y-6327881D01*
X122438401Y-6327881D01*
X122433088Y-6326457D01*
X122205001Y-6306502D01*
X121976914Y-6326457D01*
X121971601Y-6327881D01*
X121971599Y-6327881D01*
X121761068Y-6384293D01*
X121761066Y-6384294D01*
X121755758Y-6385716D01*
X121750777Y-6388039D01*
X121750776Y-6388039D01*
X121553239Y-6480151D01*
X121553234Y-6480154D01*
X121548252Y-6482477D01*
X121491081Y-6522509D01*
X121365212Y-6610643D01*
X121365209Y-6610645D01*
X121360701Y-6613802D01*
X121198803Y-6775700D01*
X121067478Y-6963251D01*
X121065155Y-6968233D01*
X121065152Y-6968238D01*
X121049196Y-7002457D01*
X121002279Y-7055742D01*
X120934002Y-7075203D01*
X120866042Y-7054661D01*
X120820806Y-7002457D01*
X120804850Y-6968238D01*
X120804847Y-6968233D01*
X120802524Y-6963251D01*
X120671199Y-6775700D01*
X120509301Y-6613802D01*
X120504793Y-6610645D01*
X120504790Y-6610643D01*
X120378921Y-6522509D01*
X120321750Y-6482477D01*
X120316768Y-6480154D01*
X120316763Y-6480151D01*
X120119226Y-6388039D01*
X120119225Y-6388039D01*
X120114244Y-6385716D01*
X120108936Y-6384294D01*
X120108934Y-6384293D01*
X119898403Y-6327881D01*
X119898401Y-6327881D01*
X119893088Y-6326457D01*
X119665001Y-6306502D01*
X119436914Y-6326457D01*
X119431601Y-6327881D01*
X119431599Y-6327881D01*
X119221068Y-6384293D01*
X119221066Y-6384294D01*
X119215758Y-6385716D01*
X119210777Y-6388039D01*
X119210776Y-6388039D01*
X119013239Y-6480151D01*
X119013234Y-6480154D01*
X119008252Y-6482477D01*
X118951081Y-6522509D01*
X118825212Y-6610643D01*
X118825209Y-6610645D01*
X118820701Y-6613802D01*
X118658803Y-6775700D01*
X118527478Y-6963251D01*
X118525155Y-6968233D01*
X118525152Y-6968238D01*
X118509196Y-7002457D01*
X118462279Y-7055742D01*
X118394002Y-7075203D01*
X118326042Y-7054661D01*
X118280806Y-7002457D01*
X118264850Y-6968238D01*
X118264847Y-6968233D01*
X118262524Y-6963251D01*
X118131199Y-6775700D01*
X117969301Y-6613802D01*
X117964793Y-6610645D01*
X117964790Y-6610643D01*
X117838921Y-6522509D01*
X117781750Y-6482477D01*
X117776768Y-6480154D01*
X117776763Y-6480151D01*
X117579226Y-6388039D01*
X117579225Y-6388039D01*
X117574244Y-6385716D01*
X117568936Y-6384294D01*
X117568934Y-6384293D01*
X117358403Y-6327881D01*
X117358401Y-6327881D01*
X117353088Y-6326457D01*
X117125001Y-6306502D01*
X116896914Y-6326457D01*
X116891601Y-6327881D01*
X116891599Y-6327881D01*
X116681068Y-6384293D01*
X116681066Y-6384294D01*
X116675758Y-6385716D01*
X116670777Y-6388039D01*
X116670776Y-6388039D01*
X116473239Y-6480151D01*
X116473234Y-6480154D01*
X116468252Y-6482477D01*
X116411081Y-6522509D01*
X116285212Y-6610643D01*
X116285209Y-6610645D01*
X116280701Y-6613802D01*
X116118803Y-6775700D01*
X115987478Y-6963251D01*
X115985155Y-6968233D01*
X115985152Y-6968238D01*
X115968920Y-7003049D01*
X115922003Y-7056334D01*
X115853726Y-7075795D01*
X115785766Y-7055253D01*
X115740530Y-7003049D01*
X115724415Y-6968489D01*
X115718932Y-6958994D01*
X115682492Y-6906952D01*
X115672013Y-6898576D01*
X115658567Y-6905644D01*
X114674096Y-7890115D01*
X114611784Y-7924141D01*
X114540969Y-7919076D01*
X114495906Y-7890115D01*
X113510714Y-6904923D01*
X113498939Y-6898493D01*
X113486924Y-6907789D01*
X113451070Y-6958994D01*
X113445587Y-6968489D01*
X113429196Y-7003641D01*
X113382279Y-7056926D01*
X113314002Y-7076387D01*
X113246042Y-7055845D01*
X113200806Y-7003641D01*
X113184415Y-6968489D01*
X113178932Y-6958994D01*
X113142492Y-6906952D01*
X113132013Y-6898576D01*
X113118567Y-6905644D01*
X112134096Y-7890115D01*
X112071784Y-7924141D01*
X112000969Y-7919076D01*
X111955906Y-7890115D01*
X110970714Y-6904923D01*
X110958939Y-6898493D01*
X110946924Y-6907789D01*
X110911070Y-6958994D01*
X110905587Y-6968489D01*
X110889472Y-7003049D01*
X110842555Y-7056334D01*
X110774278Y-7075795D01*
X110706318Y-7055253D01*
X110661082Y-7003049D01*
X110644850Y-6968238D01*
X110644847Y-6968233D01*
X110642524Y-6963251D01*
X110511199Y-6775700D01*
X110349301Y-6613802D01*
X110344793Y-6610645D01*
X110344790Y-6610643D01*
X110233887Y-6532988D01*
X111323577Y-6532988D01*
X111330645Y-6546434D01*
X112032189Y-7247978D01*
X112046133Y-7255592D01*
X112047966Y-7255461D01*
X112054581Y-7251210D01*
X112760078Y-6545713D01*
X112766508Y-6533938D01*
X112765773Y-6532988D01*
X113863577Y-6532988D01*
X113870645Y-6546434D01*
X114572189Y-7247978D01*
X114586133Y-7255592D01*
X114587966Y-7255461D01*
X114594581Y-7251210D01*
X115300078Y-6545713D01*
X115306508Y-6533938D01*
X115297212Y-6521923D01*
X115246007Y-6486069D01*
X115236512Y-6480586D01*
X115039054Y-6388510D01*
X115028762Y-6384764D01*
X114818313Y-6328375D01*
X114807520Y-6326472D01*
X114590476Y-6307483D01*
X114579526Y-6307483D01*
X114362482Y-6326472D01*
X114351689Y-6328375D01*
X114141240Y-6384764D01*
X114130948Y-6388510D01*
X113933490Y-6480586D01*
X113923995Y-6486069D01*
X113871953Y-6522509D01*
X113863577Y-6532988D01*
X112765773Y-6532988D01*
X112757212Y-6521923D01*
X112706007Y-6486069D01*
X112696512Y-6480586D01*
X112499054Y-6388510D01*
X112488762Y-6384764D01*
X112278313Y-6328375D01*
X112267520Y-6326472D01*
X112050476Y-6307483D01*
X112039526Y-6307483D01*
X111822482Y-6326472D01*
X111811689Y-6328375D01*
X111601240Y-6384764D01*
X111590948Y-6388510D01*
X111393490Y-6480586D01*
X111383995Y-6486069D01*
X111331953Y-6522509D01*
X111323577Y-6532988D01*
X110233887Y-6532988D01*
X110218921Y-6522509D01*
X110161750Y-6482477D01*
X110156768Y-6480154D01*
X110156763Y-6480151D01*
X109959226Y-6388039D01*
X109959225Y-6388039D01*
X109954244Y-6385716D01*
X109948936Y-6384294D01*
X109948934Y-6384293D01*
X109738403Y-6327881D01*
X109738401Y-6327881D01*
X109733088Y-6326457D01*
X109505001Y-6306502D01*
X109276914Y-6326457D01*
X109271601Y-6327881D01*
X109271599Y-6327881D01*
X109061068Y-6384293D01*
X109061066Y-6384294D01*
X109055758Y-6385716D01*
X109050777Y-6388039D01*
X109050776Y-6388039D01*
X108853239Y-6480151D01*
X108853234Y-6480154D01*
X108848252Y-6482477D01*
X108791081Y-6522509D01*
X108665212Y-6610643D01*
X108665209Y-6610645D01*
X108660701Y-6613802D01*
X108498803Y-6775700D01*
X108495644Y-6780211D01*
X108492109Y-6784424D01*
X108490975Y-6783473D01*
X108440930Y-6823471D01*
X108370311Y-6830776D01*
X108306952Y-6798742D01*
X108270971Y-6737538D01*
X108267919Y-6720483D01*
X108266746Y-6709684D01*
X108215616Y-6573295D01*
X108128262Y-6456739D01*
X108011706Y-6369385D01*
X107875317Y-6318255D01*
X107813135Y-6311500D01*
X106298500Y-6311500D01*
X106230379Y-6291498D01*
X106183886Y-6237842D01*
X106172500Y-6185500D01*
X106172500Y-4632670D01*
X138582160Y-4632670D01*
X138587887Y-4640320D01*
X138759042Y-4745205D01*
X138767837Y-4749687D01*
X138977988Y-4836734D01*
X138987373Y-4839783D01*
X139208554Y-4892885D01*
X139218301Y-4894428D01*
X139445070Y-4912275D01*
X139454930Y-4912275D01*
X139681699Y-4894428D01*
X139691446Y-4892885D01*
X139912627Y-4839783D01*
X139922012Y-4836734D01*
X140132163Y-4749687D01*
X140140958Y-4745205D01*
X140308445Y-4642568D01*
X140317907Y-4632110D01*
X140314124Y-4623334D01*
X139462812Y-3772022D01*
X139448868Y-3764408D01*
X139447035Y-3764539D01*
X139440420Y-3768790D01*
X138588920Y-4620290D01*
X138582160Y-4632670D01*
X106172500Y-4632670D01*
X106172500Y-3404930D01*
X137937725Y-3404930D01*
X137955572Y-3631699D01*
X137957115Y-3641446D01*
X138010217Y-3862627D01*
X138013266Y-3872012D01*
X138100313Y-4082163D01*
X138104795Y-4090958D01*
X138207432Y-4258445D01*
X138217890Y-4267907D01*
X138226666Y-4264124D01*
X139077978Y-3412812D01*
X139084356Y-3401132D01*
X139814408Y-3401132D01*
X139814539Y-3402965D01*
X139818790Y-3409580D01*
X140670290Y-4261080D01*
X140708648Y-4282026D01*
X140744072Y-4310782D01*
X140787383Y-4361492D01*
X140880031Y-4469969D01*
X141060584Y-4624176D01*
X141064792Y-4626755D01*
X141064798Y-4626759D01*
X141258084Y-4745205D01*
X141263037Y-4748240D01*
X141267607Y-4750133D01*
X141267611Y-4750135D01*
X141477833Y-4837211D01*
X141482406Y-4839105D01*
X141562609Y-4858360D01*
X141708476Y-4893380D01*
X141708482Y-4893381D01*
X141713289Y-4894535D01*
X141950000Y-4913165D01*
X142186711Y-4894535D01*
X142191518Y-4893381D01*
X142191524Y-4893380D01*
X142337391Y-4858360D01*
X142417594Y-4839105D01*
X142422167Y-4837211D01*
X142503343Y-4803587D01*
X143368754Y-4803587D01*
X143375658Y-4816448D01*
X144937188Y-6377978D01*
X144951132Y-6385592D01*
X144952965Y-6385461D01*
X144959580Y-6381210D01*
X146524666Y-4816124D01*
X146531279Y-4804013D01*
X146522452Y-4792395D01*
X146299719Y-4630570D01*
X146293039Y-4626330D01*
X146023428Y-4478110D01*
X146016293Y-4474753D01*
X145730230Y-4361492D01*
X145722704Y-4359047D01*
X145424721Y-4282538D01*
X145416950Y-4281055D01*
X145111722Y-4242497D01*
X145103831Y-4242000D01*
X144796169Y-4242000D01*
X144788278Y-4242497D01*
X144483050Y-4281055D01*
X144475279Y-4282538D01*
X144177296Y-4359047D01*
X144169770Y-4361492D01*
X143883707Y-4474753D01*
X143876572Y-4478110D01*
X143606961Y-4626330D01*
X143600281Y-4630570D01*
X143377177Y-4792664D01*
X143368754Y-4803587D01*
X142503343Y-4803587D01*
X142632389Y-4750135D01*
X142632393Y-4750133D01*
X142636963Y-4748240D01*
X142641916Y-4745205D01*
X142835202Y-4626759D01*
X142835208Y-4626755D01*
X142839416Y-4624176D01*
X143019969Y-4469969D01*
X143174176Y-4289416D01*
X143176755Y-4285208D01*
X143176759Y-4285202D01*
X143295654Y-4091183D01*
X143298240Y-4086963D01*
X143300229Y-4082163D01*
X143387211Y-3872167D01*
X143387212Y-3872165D01*
X143389105Y-3867594D01*
X143444535Y-3636711D01*
X143463165Y-3400000D01*
X143444535Y-3163289D01*
X143389105Y-2932406D01*
X143387211Y-2927833D01*
X143300135Y-2717611D01*
X143300133Y-2717607D01*
X143298240Y-2713037D01*
X143295654Y-2708817D01*
X143176759Y-2514798D01*
X143176755Y-2514792D01*
X143174176Y-2510584D01*
X143019969Y-2330031D01*
X142839416Y-2175824D01*
X142835208Y-2173245D01*
X142835202Y-2173241D01*
X142641183Y-2054346D01*
X142636963Y-2051760D01*
X142632393Y-2049867D01*
X142632389Y-2049865D01*
X142422167Y-1962789D01*
X142422165Y-1962788D01*
X142417594Y-1960895D01*
X142355498Y-1945987D01*
X144168721Y-1945987D01*
X144177548Y-1957605D01*
X144400281Y-2119430D01*
X144406961Y-2123670D01*
X144676572Y-2271890D01*
X144683707Y-2275247D01*
X144969770Y-2388508D01*
X144977296Y-2390953D01*
X145275279Y-2467462D01*
X145283050Y-2468945D01*
X145588278Y-2507503D01*
X145596169Y-2508000D01*
X145903831Y-2508000D01*
X145911722Y-2507503D01*
X146216950Y-2468945D01*
X146224721Y-2467462D01*
X146522704Y-2390953D01*
X146530230Y-2388508D01*
X146816293Y-2275247D01*
X146823428Y-2271890D01*
X147093039Y-2123670D01*
X147099719Y-2119430D01*
X147322823Y-1957336D01*
X147331246Y-1946413D01*
X147324342Y-1933552D01*
X145762812Y-372022D01*
X145748868Y-364408D01*
X145747035Y-364539D01*
X145740420Y-368790D01*
X144175334Y-1933876D01*
X144168721Y-1945987D01*
X142355498Y-1945987D01*
X142303702Y-1933552D01*
X142191524Y-1906620D01*
X142191518Y-1906619D01*
X142186711Y-1905465D01*
X141950000Y-1886835D01*
X141713289Y-1905465D01*
X141708482Y-1906619D01*
X141708476Y-1906620D01*
X141596298Y-1933552D01*
X141482406Y-1960895D01*
X141477835Y-1962788D01*
X141477833Y-1962789D01*
X141267611Y-2049865D01*
X141267607Y-2049867D01*
X141263037Y-2051760D01*
X141258817Y-2054346D01*
X141064798Y-2173241D01*
X141064792Y-2173245D01*
X141060584Y-2175824D01*
X140880031Y-2330031D01*
X140876823Y-2333787D01*
X140741247Y-2492526D01*
X140695314Y-2526402D01*
X140673332Y-2535878D01*
X139822022Y-3387188D01*
X139814408Y-3401132D01*
X139084356Y-3401132D01*
X139085592Y-3398868D01*
X139085461Y-3397035D01*
X139081210Y-3390420D01*
X138229710Y-2538920D01*
X138217330Y-2532160D01*
X138209680Y-2537887D01*
X138104795Y-2709042D01*
X138100313Y-2717837D01*
X138013266Y-2927988D01*
X138010217Y-2937373D01*
X137957115Y-3158554D01*
X137955572Y-3168301D01*
X137937725Y-3395070D01*
X137937725Y-3404930D01*
X106172500Y-3404930D01*
X106172500Y-2167890D01*
X138582093Y-2167890D01*
X138585876Y-2176666D01*
X139437188Y-3027978D01*
X139451132Y-3035592D01*
X139452965Y-3035461D01*
X139459580Y-3031210D01*
X140311080Y-2179710D01*
X140317840Y-2167330D01*
X140312113Y-2159680D01*
X140140958Y-2054795D01*
X140132163Y-2050313D01*
X139922012Y-1963266D01*
X139912627Y-1960217D01*
X139691446Y-1907115D01*
X139681699Y-1905572D01*
X139454930Y-1887725D01*
X139445070Y-1887725D01*
X139218301Y-1905572D01*
X139208554Y-1907115D01*
X138987373Y-1960217D01*
X138977988Y-1963266D01*
X138767837Y-2050313D01*
X138759042Y-2054795D01*
X138591555Y-2157432D01*
X138582093Y-2167890D01*
X106172500Y-2167890D01*
X106172500Y0D01*
X125024884Y0D01*
X125043314Y-210655D01*
X125098044Y-414910D01*
X125187411Y-606558D01*
X125308699Y-779776D01*
X125458224Y-929301D01*
X125631442Y-1050589D01*
X125636420Y-1052910D01*
X125636423Y-1052912D01*
X125818108Y-1137633D01*
X125823090Y-1139956D01*
X125828398Y-1141378D01*
X125828400Y-1141379D01*
X126022030Y-1193262D01*
X126022032Y-1193262D01*
X126027345Y-1194686D01*
X126238000Y-1213116D01*
X126448655Y-1194686D01*
X126453968Y-1193262D01*
X126453970Y-1193262D01*
X126647600Y-1141379D01*
X126647602Y-1141378D01*
X126652910Y-1139956D01*
X126657892Y-1137633D01*
X126839577Y-1052912D01*
X126839580Y-1052910D01*
X126844558Y-1050589D01*
X127017776Y-929301D01*
X127167301Y-779776D01*
X127288589Y-606558D01*
X127377956Y-414910D01*
X127432686Y-210655D01*
X127451116Y0D01*
X132644884Y0D01*
X132663314Y-210655D01*
X132718044Y-414910D01*
X132807411Y-606558D01*
X132928699Y-779776D01*
X133078224Y-929301D01*
X133251442Y-1050589D01*
X133256420Y-1052910D01*
X133256423Y-1052912D01*
X133438108Y-1137633D01*
X133443090Y-1139956D01*
X133448398Y-1141378D01*
X133448400Y-1141379D01*
X133642030Y-1193262D01*
X133642032Y-1193262D01*
X133647345Y-1194686D01*
X133858000Y-1213116D01*
X134068655Y-1194686D01*
X134073968Y-1193262D01*
X134073970Y-1193262D01*
X134267600Y-1141379D01*
X134267602Y-1141378D01*
X134272910Y-1139956D01*
X134277892Y-1137633D01*
X134459577Y-1052912D01*
X134459580Y-1052910D01*
X134464558Y-1050589D01*
X134637776Y-929301D01*
X134787301Y-779776D01*
X134908589Y-606558D01*
X134997956Y-414910D01*
X135052686Y-210655D01*
X135070770Y-3958D01*
X143237290Y-3958D01*
X143256607Y-310994D01*
X143257600Y-318855D01*
X143315246Y-621046D01*
X143317217Y-628723D01*
X143412284Y-921309D01*
X143415199Y-928672D01*
X143546189Y-1207041D01*
X143550001Y-1213974D01*
X143714851Y-1473736D01*
X143719495Y-1480129D01*
X143794497Y-1570790D01*
X143807014Y-1579245D01*
X143817752Y-1573038D01*
X145377978Y-12812D01*
X145384356Y-1132D01*
X146114408Y-1132D01*
X146114539Y-2965D01*
X146118790Y-9580D01*
X147681145Y-1571935D01*
X147694407Y-1579177D01*
X147704512Y-1571988D01*
X147780505Y-1480129D01*
X147785149Y-1473736D01*
X147949999Y-1213974D01*
X147953811Y-1207041D01*
X148084801Y-928672D01*
X148087716Y-921309D01*
X148182783Y-628723D01*
X148184754Y-621046D01*
X148242400Y-318855D01*
X148243393Y-310994D01*
X148262710Y-3958D01*
X148262710Y3958D01*
X148243393Y310994D01*
X148242400Y318855D01*
X148184754Y621046D01*
X148182783Y628723D01*
X148087716Y921309D01*
X148084801Y928672D01*
X147953811Y1207041D01*
X147949999Y1213974D01*
X147785149Y1473736D01*
X147780505Y1480129D01*
X147705503Y1570790D01*
X147692986Y1579245D01*
X147682248Y1573038D01*
X146122022Y12812D01*
X146114408Y-1132D01*
X145384356Y-1132D01*
X145385592Y1132D01*
X145385461Y2965D01*
X145381210Y9580D01*
X143818855Y1571935D01*
X143805593Y1579177D01*
X143795488Y1571988D01*
X143719495Y1480129D01*
X143714851Y1473736D01*
X143550001Y1213974D01*
X143546189Y1207041D01*
X143415199Y928672D01*
X143412284Y921309D01*
X143317217Y628723D01*
X143315246Y621046D01*
X143257600Y318855D01*
X143256607Y310994D01*
X143237290Y3958D01*
X143237290Y-3958D01*
X135070770Y-3958D01*
X135071116Y0D01*
X135052686Y210655D01*
X134997956Y414910D01*
X134908589Y606558D01*
X134787301Y779776D01*
X134637776Y929301D01*
X134464558Y1050589D01*
X134459580Y1052910D01*
X134459577Y1052912D01*
X134277892Y1137633D01*
X134277891Y1137634D01*
X134272910Y1139956D01*
X134267602Y1141378D01*
X134267600Y1141379D01*
X134073970Y1193262D01*
X134073968Y1193262D01*
X134068655Y1194686D01*
X133858000Y1213116D01*
X133647345Y1194686D01*
X133642032Y1193262D01*
X133642030Y1193262D01*
X133448400Y1141379D01*
X133448398Y1141378D01*
X133443090Y1139956D01*
X133438109Y1137634D01*
X133438108Y1137633D01*
X133256423Y1052912D01*
X133256420Y1052910D01*
X133251442Y1050589D01*
X133078224Y929301D01*
X132928699Y779776D01*
X132807411Y606558D01*
X132718044Y414910D01*
X132663314Y210655D01*
X132644884Y0D01*
X127451116Y0D01*
X127432686Y210655D01*
X127377956Y414910D01*
X127288589Y606558D01*
X127167301Y779776D01*
X127017776Y929301D01*
X126844558Y1050589D01*
X126839580Y1052910D01*
X126839577Y1052912D01*
X126657892Y1137633D01*
X126657891Y1137634D01*
X126652910Y1139956D01*
X126647602Y1141378D01*
X126647600Y1141379D01*
X126453970Y1193262D01*
X126453968Y1193262D01*
X126448655Y1194686D01*
X126238000Y1213116D01*
X126027345Y1194686D01*
X126022032Y1193262D01*
X126022030Y1193262D01*
X125828400Y1141379D01*
X125828398Y1141378D01*
X125823090Y1139956D01*
X125818109Y1137634D01*
X125818108Y1137633D01*
X125636423Y1052912D01*
X125636420Y1052910D01*
X125631442Y1050589D01*
X125458224Y929301D01*
X125308699Y779776D01*
X125187411Y606558D01*
X125098044Y414910D01*
X125043314Y210655D01*
X125024884Y0D01*
X106172500Y0D01*
X106172500Y3400000D01*
X137936835Y3400000D01*
X137955465Y3163289D01*
X138010895Y2932406D01*
X138101760Y2713037D01*
X138104346Y2708817D01*
X138223241Y2514798D01*
X138223245Y2514792D01*
X138225824Y2510584D01*
X138380031Y2330031D01*
X138560584Y2175824D01*
X138564792Y2173245D01*
X138564798Y2173241D01*
X138645691Y2123670D01*
X138763037Y2051760D01*
X138767607Y2049867D01*
X138767611Y2049865D01*
X138977833Y1962789D01*
X138982406Y1960895D01*
X139062609Y1941640D01*
X139208476Y1906620D01*
X139208482Y1906619D01*
X139213289Y1905465D01*
X139450000Y1886835D01*
X139686711Y1905465D01*
X139691518Y1906619D01*
X139691524Y1906620D01*
X139837391Y1941640D01*
X139917594Y1960895D01*
X139922167Y1962789D01*
X140132389Y2049865D01*
X140132393Y2049867D01*
X140136963Y2051760D01*
X140254309Y2123670D01*
X140335202Y2173241D01*
X140335208Y2173245D01*
X140339416Y2175824D01*
X140519969Y2330031D01*
X140523177Y2333787D01*
X140523182Y2333792D01*
X140604189Y2428639D01*
X140663639Y2467449D01*
X140734634Y2467955D01*
X140795811Y2428639D01*
X140876818Y2333792D01*
X140876823Y2333787D01*
X140880031Y2330031D01*
X141060584Y2175824D01*
X141064792Y2173245D01*
X141064798Y2173241D01*
X141145691Y2123670D01*
X141263037Y2051760D01*
X141267607Y2049867D01*
X141267611Y2049865D01*
X141477833Y1962789D01*
X141482406Y1960895D01*
X141562609Y1941640D01*
X141708476Y1906620D01*
X141708482Y1906619D01*
X141713289Y1905465D01*
X141950000Y1886835D01*
X142186711Y1905465D01*
X142191518Y1906619D01*
X142191524Y1906620D01*
X142337391Y1941640D01*
X142357272Y1946413D01*
X144168754Y1946413D01*
X144175658Y1933552D01*
X145737188Y372022D01*
X145751132Y364408D01*
X145752965Y364539D01*
X145759580Y368790D01*
X147324666Y1933876D01*
X147331279Y1945987D01*
X147322452Y1957605D01*
X147099719Y2119430D01*
X147093039Y2123670D01*
X146823428Y2271890D01*
X146816293Y2275247D01*
X146530230Y2388508D01*
X146522704Y2390953D01*
X146224721Y2467462D01*
X146216950Y2468945D01*
X145911722Y2507503D01*
X145903831Y2508000D01*
X145596169Y2508000D01*
X145588278Y2507503D01*
X145283050Y2468945D01*
X145275279Y2467462D01*
X144977296Y2390953D01*
X144969770Y2388508D01*
X144683707Y2275247D01*
X144676572Y2271890D01*
X144406961Y2123670D01*
X144400281Y2119430D01*
X144177177Y1957336D01*
X144168754Y1946413D01*
X142357272Y1946413D01*
X142417594Y1960895D01*
X142422167Y1962789D01*
X142632389Y2049865D01*
X142632393Y2049867D01*
X142636963Y2051760D01*
X142754309Y2123670D01*
X142835202Y2173241D01*
X142835208Y2173245D01*
X142839416Y2175824D01*
X143019969Y2330031D01*
X143174176Y2510584D01*
X143176755Y2514792D01*
X143176759Y2514798D01*
X143295654Y2708817D01*
X143298240Y2713037D01*
X143389105Y2932406D01*
X143444535Y3163289D01*
X143463165Y3400000D01*
X143444535Y3636711D01*
X143389105Y3867594D01*
X143298240Y4086963D01*
X143203233Y4242000D01*
X143176759Y4285202D01*
X143176755Y4285208D01*
X143174176Y4289416D01*
X143019969Y4469969D01*
X142839416Y4624176D01*
X142835208Y4626755D01*
X142835202Y4626759D01*
X142641183Y4745654D01*
X142636963Y4748240D01*
X142632393Y4750133D01*
X142632389Y4750135D01*
X142502315Y4804013D01*
X143368721Y4804013D01*
X143377548Y4792395D01*
X143600281Y4630570D01*
X143606961Y4626330D01*
X143876572Y4478110D01*
X143883707Y4474753D01*
X144169770Y4361492D01*
X144177296Y4359047D01*
X144475279Y4282538D01*
X144483050Y4281055D01*
X144788278Y4242497D01*
X144796169Y4242000D01*
X145103831Y4242000D01*
X145111722Y4242497D01*
X145416950Y4281055D01*
X145424721Y4282538D01*
X145722704Y4359047D01*
X145730230Y4361492D01*
X146016293Y4474753D01*
X146023428Y4478110D01*
X146293039Y4626330D01*
X146299719Y4630570D01*
X146522823Y4792664D01*
X146531246Y4803587D01*
X146524342Y4816448D01*
X144962812Y6377978D01*
X144948868Y6385592D01*
X144947035Y6385461D01*
X144940420Y6381210D01*
X143375334Y4816124D01*
X143368721Y4804013D01*
X142502315Y4804013D01*
X142422167Y4837211D01*
X142422165Y4837212D01*
X142417594Y4839105D01*
X142337391Y4858360D01*
X142191524Y4893380D01*
X142191518Y4893381D01*
X142186711Y4894535D01*
X141950000Y4913165D01*
X141713289Y4894535D01*
X141708482Y4893381D01*
X141708476Y4893380D01*
X141562609Y4858360D01*
X141482406Y4839105D01*
X141477835Y4837212D01*
X141477833Y4837211D01*
X141267611Y4750135D01*
X141267607Y4750133D01*
X141263037Y4748240D01*
X141258817Y4745654D01*
X141064798Y4626759D01*
X141064792Y4626755D01*
X141060584Y4624176D01*
X140880031Y4469969D01*
X140876823Y4466213D01*
X140876818Y4466208D01*
X140795811Y4371361D01*
X140736361Y4332551D01*
X140665366Y4332045D01*
X140604189Y4371361D01*
X140523182Y4466208D01*
X140523177Y4466213D01*
X140519969Y4469969D01*
X140339416Y4624176D01*
X140335208Y4626755D01*
X140335202Y4626759D01*
X140141183Y4745654D01*
X140136963Y4748240D01*
X140132393Y4750133D01*
X140132389Y4750135D01*
X139922167Y4837211D01*
X139922165Y4837212D01*
X139917594Y4839105D01*
X139837391Y4858360D01*
X139691524Y4893380D01*
X139691518Y4893381D01*
X139686711Y4894535D01*
X139450000Y4913165D01*
X139213289Y4894535D01*
X139208482Y4893381D01*
X139208476Y4893380D01*
X139062609Y4858360D01*
X138982406Y4839105D01*
X138977835Y4837212D01*
X138977833Y4837211D01*
X138767611Y4750135D01*
X138767607Y4750133D01*
X138763037Y4748240D01*
X138758817Y4745654D01*
X138564798Y4626759D01*
X138564792Y4626755D01*
X138560584Y4624176D01*
X138380031Y4469969D01*
X138225824Y4289416D01*
X138223245Y4285208D01*
X138223241Y4285202D01*
X138196767Y4242000D01*
X138101760Y4086963D01*
X138010895Y3867594D01*
X137955465Y3636711D01*
X137936835Y3400000D01*
X106172500Y3400000D01*
X106172500Y6347999D01*
X106192502Y6416120D01*
X106246158Y6462613D01*
X106316432Y6472717D01*
X106351748Y6462195D01*
X106515758Y6385716D01*
X106521066Y6384294D01*
X106521068Y6384293D01*
X106731599Y6327881D01*
X106731601Y6327881D01*
X106736914Y6326457D01*
X106965001Y6306502D01*
X107193088Y6326457D01*
X107198401Y6327881D01*
X107198403Y6327881D01*
X107408934Y6384293D01*
X107408936Y6384294D01*
X107414244Y6385716D01*
X107420236Y6388510D01*
X107616763Y6480151D01*
X107616768Y6480154D01*
X107621750Y6482477D01*
X107695244Y6533938D01*
X108783494Y6533938D01*
X108792790Y6521923D01*
X108843995Y6486069D01*
X108853490Y6480586D01*
X109050948Y6388510D01*
X109061240Y6384764D01*
X109271689Y6328375D01*
X109282482Y6326472D01*
X109499526Y6307483D01*
X109510476Y6307483D01*
X109727520Y6326472D01*
X109738313Y6328375D01*
X109948762Y6384764D01*
X109959054Y6388510D01*
X110156512Y6480586D01*
X110166007Y6486069D01*
X110218049Y6522509D01*
X110226425Y6532988D01*
X110219357Y6546434D01*
X109517813Y7247978D01*
X109503869Y7255592D01*
X109502036Y7255461D01*
X109495421Y7251210D01*
X108789924Y6545713D01*
X108783494Y6533938D01*
X107695244Y6533938D01*
X107757502Y6577532D01*
X107804790Y6610643D01*
X107804793Y6610645D01*
X107809301Y6613802D01*
X107971199Y6775700D01*
X108102524Y6963251D01*
X108104847Y6968233D01*
X108104850Y6968238D01*
X108121082Y7003049D01*
X108167999Y7056334D01*
X108236276Y7075795D01*
X108304236Y7055253D01*
X108349472Y7003049D01*
X108365587Y6968489D01*
X108371070Y6958994D01*
X108407510Y6906952D01*
X108417989Y6898576D01*
X108431435Y6905644D01*
X109415906Y7890115D01*
X109478218Y7924141D01*
X109549033Y7919076D01*
X109594096Y7890115D01*
X110579288Y6904923D01*
X110591063Y6898493D01*
X110603078Y6907789D01*
X110638932Y6958994D01*
X110644415Y6968489D01*
X110660530Y7003049D01*
X110707447Y7056334D01*
X110775724Y7075795D01*
X110843684Y7055253D01*
X110888920Y7003049D01*
X110905152Y6968238D01*
X110905155Y6968233D01*
X110907478Y6963251D01*
X111038803Y6775700D01*
X111200701Y6613802D01*
X111205209Y6610645D01*
X111205212Y6610643D01*
X111252500Y6577532D01*
X111388252Y6482477D01*
X111393234Y6480154D01*
X111393239Y6480151D01*
X111589766Y6388510D01*
X111595758Y6385716D01*
X111601066Y6384294D01*
X111601068Y6384293D01*
X111811599Y6327881D01*
X111811601Y6327881D01*
X111816914Y6326457D01*
X112045001Y6306502D01*
X112273088Y6326457D01*
X112278401Y6327881D01*
X112278403Y6327881D01*
X112488934Y6384293D01*
X112488936Y6384294D01*
X112494244Y6385716D01*
X112500236Y6388510D01*
X112696763Y6480151D01*
X112696768Y6480154D01*
X112701750Y6482477D01*
X112837502Y6577532D01*
X112884790Y6610643D01*
X112884793Y6610645D01*
X112889301Y6613802D01*
X113051199Y6775700D01*
X113182524Y6963251D01*
X113184847Y6968233D01*
X113184850Y6968238D01*
X113200806Y7002457D01*
X113247723Y7055742D01*
X113316000Y7075203D01*
X113383960Y7054661D01*
X113429196Y7002457D01*
X113445152Y6968238D01*
X113445155Y6968233D01*
X113447478Y6963251D01*
X113578803Y6775700D01*
X113740701Y6613802D01*
X113745209Y6610645D01*
X113745212Y6610643D01*
X113792500Y6577532D01*
X113928252Y6482477D01*
X113933234Y6480154D01*
X113933239Y6480151D01*
X114129766Y6388510D01*
X114135758Y6385716D01*
X114141066Y6384294D01*
X114141068Y6384293D01*
X114351599Y6327881D01*
X114351601Y6327881D01*
X114356914Y6326457D01*
X114585001Y6306502D01*
X114813088Y6326457D01*
X114818401Y6327881D01*
X114818403Y6327881D01*
X115028934Y6384293D01*
X115028936Y6384294D01*
X115034244Y6385716D01*
X115040236Y6388510D01*
X115236763Y6480151D01*
X115236768Y6480154D01*
X115241750Y6482477D01*
X115377502Y6577532D01*
X115424790Y6610643D01*
X115424793Y6610645D01*
X115429301Y6613802D01*
X115591199Y6775700D01*
X115722524Y6963251D01*
X115724847Y6968233D01*
X115724850Y6968238D01*
X115740806Y7002457D01*
X115787723Y7055742D01*
X115856000Y7075203D01*
X115923960Y7054661D01*
X115969196Y7002457D01*
X115985152Y6968238D01*
X115985155Y6968233D01*
X115987478Y6963251D01*
X116118803Y6775700D01*
X116280701Y6613802D01*
X116285209Y6610645D01*
X116285212Y6610643D01*
X116332500Y6577532D01*
X116468252Y6482477D01*
X116473234Y6480154D01*
X116473239Y6480151D01*
X116669766Y6388510D01*
X116675758Y6385716D01*
X116681066Y6384294D01*
X116681068Y6384293D01*
X116891599Y6327881D01*
X116891601Y6327881D01*
X116896914Y6326457D01*
X117125001Y6306502D01*
X117353088Y6326457D01*
X117358401Y6327881D01*
X117358403Y6327881D01*
X117568934Y6384293D01*
X117568936Y6384294D01*
X117574244Y6385716D01*
X117580236Y6388510D01*
X117776763Y6480151D01*
X117776768Y6480154D01*
X117781750Y6482477D01*
X117917502Y6577532D01*
X117964790Y6610643D01*
X117964793Y6610645D01*
X117969301Y6613802D01*
X118131199Y6775700D01*
X118262524Y6963251D01*
X118264847Y6968233D01*
X118264850Y6968238D01*
X118280806Y7002457D01*
X118327723Y7055742D01*
X118396000Y7075203D01*
X118463960Y7054661D01*
X118509196Y7002457D01*
X118525152Y6968238D01*
X118525155Y6968233D01*
X118527478Y6963251D01*
X118658803Y6775700D01*
X118820701Y6613802D01*
X118825209Y6610645D01*
X118825212Y6610643D01*
X118872500Y6577532D01*
X119008252Y6482477D01*
X119013234Y6480154D01*
X119013239Y6480151D01*
X119209766Y6388510D01*
X119215758Y6385716D01*
X119221066Y6384294D01*
X119221068Y6384293D01*
X119431599Y6327881D01*
X119431601Y6327881D01*
X119436914Y6326457D01*
X119665001Y6306502D01*
X119893088Y6326457D01*
X119898401Y6327881D01*
X119898403Y6327881D01*
X120108934Y6384293D01*
X120108936Y6384294D01*
X120114244Y6385716D01*
X120120236Y6388510D01*
X120316763Y6480151D01*
X120316768Y6480154D01*
X120321750Y6482477D01*
X120457502Y6577532D01*
X120504790Y6610643D01*
X120504793Y6610645D01*
X120509301Y6613802D01*
X120671199Y6775700D01*
X120802524Y6963251D01*
X120804847Y6968233D01*
X120804850Y6968238D01*
X120820806Y7002457D01*
X120867723Y7055742D01*
X120936000Y7075203D01*
X121003960Y7054661D01*
X121049196Y7002457D01*
X121065152Y6968238D01*
X121065155Y6968233D01*
X121067478Y6963251D01*
X121198803Y6775700D01*
X121360701Y6613802D01*
X121365209Y6610645D01*
X121365212Y6610643D01*
X121412500Y6577532D01*
X121548252Y6482477D01*
X121553234Y6480154D01*
X121553239Y6480151D01*
X121749766Y6388510D01*
X121755758Y6385716D01*
X121761066Y6384294D01*
X121761068Y6384293D01*
X121971599Y6327881D01*
X121971601Y6327881D01*
X121976914Y6326457D01*
X122205001Y6306502D01*
X122433088Y6326457D01*
X122438401Y6327881D01*
X122438403Y6327881D01*
X122648934Y6384293D01*
X122648936Y6384294D01*
X122654244Y6385716D01*
X122660236Y6388510D01*
X122856763Y6480151D01*
X122856768Y6480154D01*
X122861750Y6482477D01*
X122997502Y6577532D01*
X123044790Y6610643D01*
X123044793Y6610645D01*
X123049301Y6613802D01*
X123211199Y6775700D01*
X123342524Y6963251D01*
X123344847Y6968233D01*
X123344850Y6968238D01*
X123360806Y7002457D01*
X123407723Y7055742D01*
X123476000Y7075203D01*
X123543960Y7054661D01*
X123589196Y7002457D01*
X123605152Y6968238D01*
X123605155Y6968233D01*
X123607478Y6963251D01*
X123738803Y6775700D01*
X123900701Y6613802D01*
X123905209Y6610645D01*
X123905212Y6610643D01*
X123952500Y6577532D01*
X124088252Y6482477D01*
X124093234Y6480154D01*
X124093239Y6480151D01*
X124289766Y6388510D01*
X124295758Y6385716D01*
X124301066Y6384294D01*
X124301068Y6384293D01*
X124511599Y6327881D01*
X124511601Y6327881D01*
X124516914Y6326457D01*
X124745001Y6306502D01*
X124973088Y6326457D01*
X124978401Y6327881D01*
X124978403Y6327881D01*
X125188934Y6384293D01*
X125188936Y6384294D01*
X125194244Y6385716D01*
X125200236Y6388510D01*
X125396763Y6480151D01*
X125396768Y6480154D01*
X125401750Y6482477D01*
X125537502Y6577532D01*
X125584790Y6610643D01*
X125584793Y6610645D01*
X125589301Y6613802D01*
X125751199Y6775700D01*
X125882524Y6963251D01*
X125884847Y6968233D01*
X125884850Y6968238D01*
X125900806Y7002457D01*
X125947723Y7055742D01*
X126016000Y7075203D01*
X126083960Y7054661D01*
X126129196Y7002457D01*
X126145152Y6968238D01*
X126145155Y6968233D01*
X126147478Y6963251D01*
X126278803Y6775700D01*
X126440701Y6613802D01*
X126445209Y6610645D01*
X126445212Y6610643D01*
X126492500Y6577532D01*
X126628252Y6482477D01*
X126633234Y6480154D01*
X126633239Y6480151D01*
X126829766Y6388510D01*
X126835758Y6385716D01*
X126841066Y6384294D01*
X126841068Y6384293D01*
X127051599Y6327881D01*
X127051601Y6327881D01*
X127056914Y6326457D01*
X127285001Y6306502D01*
X127513088Y6326457D01*
X127518401Y6327881D01*
X127518403Y6327881D01*
X127728934Y6384293D01*
X127728936Y6384294D01*
X127734244Y6385716D01*
X127740236Y6388510D01*
X127936763Y6480151D01*
X127936768Y6480154D01*
X127941750Y6482477D01*
X128077502Y6577532D01*
X128124790Y6610643D01*
X128124793Y6610645D01*
X128129301Y6613802D01*
X128291199Y6775700D01*
X128422524Y6963251D01*
X128424847Y6968233D01*
X128424850Y6968238D01*
X128440806Y7002457D01*
X128487723Y7055742D01*
X128556000Y7075203D01*
X128623960Y7054661D01*
X128669196Y7002457D01*
X128685152Y6968238D01*
X128685155Y6968233D01*
X128687478Y6963251D01*
X128818803Y6775700D01*
X128980701Y6613802D01*
X128985209Y6610645D01*
X128985212Y6610643D01*
X129032500Y6577532D01*
X129168252Y6482477D01*
X129173234Y6480154D01*
X129173239Y6480151D01*
X129369766Y6388510D01*
X129375758Y6385716D01*
X129381066Y6384294D01*
X129381068Y6384293D01*
X129591599Y6327881D01*
X129591601Y6327881D01*
X129596914Y6326457D01*
X129825001Y6306502D01*
X130053088Y6326457D01*
X130058401Y6327881D01*
X130058403Y6327881D01*
X130268934Y6384293D01*
X130268936Y6384294D01*
X130274244Y6385716D01*
X130280236Y6388510D01*
X130476763Y6480151D01*
X130476768Y6480154D01*
X130481750Y6482477D01*
X130617502Y6577532D01*
X130664790Y6610643D01*
X130664793Y6610645D01*
X130669301Y6613802D01*
X130831199Y6775700D01*
X130962524Y6963251D01*
X130964847Y6968233D01*
X130964850Y6968238D01*
X130980806Y7002457D01*
X131027723Y7055742D01*
X131096000Y7075203D01*
X131163960Y7054661D01*
X131209196Y7002457D01*
X131225152Y6968238D01*
X131225155Y6968233D01*
X131227478Y6963251D01*
X131358803Y6775700D01*
X131520701Y6613802D01*
X131525209Y6610645D01*
X131525212Y6610643D01*
X131572500Y6577532D01*
X131708252Y6482477D01*
X131713234Y6480154D01*
X131713239Y6480151D01*
X131909766Y6388510D01*
X131915758Y6385716D01*
X131921066Y6384294D01*
X131921068Y6384293D01*
X132131599Y6327881D01*
X132131601Y6327881D01*
X132136914Y6326457D01*
X132365001Y6306502D01*
X132593088Y6326457D01*
X132598401Y6327881D01*
X132598403Y6327881D01*
X132808934Y6384293D01*
X132808936Y6384294D01*
X132814244Y6385716D01*
X132820236Y6388510D01*
X133016763Y6480151D01*
X133016768Y6480154D01*
X133021750Y6482477D01*
X133157502Y6577532D01*
X133204790Y6610643D01*
X133204793Y6610645D01*
X133209301Y6613802D01*
X133371199Y6775700D01*
X133502524Y6963251D01*
X133504847Y6968233D01*
X133504850Y6968238D01*
X133520806Y7002457D01*
X133567723Y7055742D01*
X133636000Y7075203D01*
X133703960Y7054661D01*
X133749196Y7002457D01*
X133765152Y6968238D01*
X133765155Y6968233D01*
X133767478Y6963251D01*
X133898803Y6775700D01*
X134060701Y6613802D01*
X134065209Y6610645D01*
X134065212Y6610643D01*
X134112500Y6577532D01*
X134248252Y6482477D01*
X134253234Y6480154D01*
X134253239Y6480151D01*
X134449766Y6388510D01*
X134455758Y6385716D01*
X134461066Y6384294D01*
X134461068Y6384293D01*
X134671599Y6327881D01*
X134671601Y6327881D01*
X134676914Y6326457D01*
X134905001Y6306502D01*
X135133088Y6326457D01*
X135138401Y6327881D01*
X135138403Y6327881D01*
X135348934Y6384293D01*
X135348936Y6384294D01*
X135354244Y6385716D01*
X135360236Y6388510D01*
X135556763Y6480151D01*
X135556768Y6480154D01*
X135561750Y6482477D01*
X135697502Y6577532D01*
X135744790Y6610643D01*
X135744793Y6610645D01*
X135749301Y6613802D01*
X135911199Y6775700D01*
X136042524Y6963251D01*
X136044847Y6968233D01*
X136044850Y6968238D01*
X136136962Y7165775D01*
X136136962Y7165776D01*
X136139285Y7170757D01*
X136159977Y7247978D01*
X136197120Y7386598D01*
X136197120Y7386600D01*
X136198544Y7391913D01*
X136218499Y7620000D01*
X136198544Y7848087D01*
X136187283Y7890115D01*
X136140708Y8063933D01*
X136140707Y8063935D01*
X136139285Y8069243D01*
X136077263Y8202251D01*
X136066602Y8272442D01*
X136095582Y8337255D01*
X136155002Y8376111D01*
X136191458Y8381500D01*
X142785778Y8381500D01*
X142853899Y8361498D01*
G37*
%TD.AperFunction*%
%TD*%
M02*
